<svg xmlns="http://www.w3.org/2000/svg" version="1.1" xmlns:xlink="http://www.w3.org/1999/xlink" xmlns:svgjs="http://svgjs.dev/svgjs" width="1000" height="1000" viewBox="0 0 1000 1000"><rect width="1000" height="1000" fill="#000000"></rect><g transform="matrix(0.7,0,0,0.7,150,281.25)"><svg viewBox="0 0 512 320" data-background-color="#ffffff" preserveAspectRatio="xMidYMid meet" height="625" width="1000" xmlns="http://www.w3.org/2000/svg" xmlns:xlink="http://www.w3.org/1999/xlink"><g id="tight-bounds" transform="matrix(1,0,0,1,0,0)"><svg viewBox="0 0 512 320" height="320" width="512"><g><svg></svg></g><g><svg viewBox="0 0 512 320" height="320" width="512"><g><path xmlns="http://www.w3.org/2000/svg" d="M96 160c0-88.366 71.634-160 160-160 88.366 0 160 71.634 160 160 0 88.366-71.634 160-160 160-88.366 0-160-71.634-160-160z" fill="#ffffff" fill-rule="nonzero" stroke="none" stroke-width="1" stroke-linecap="butt" stroke-linejoin="miter" stroke-miterlimit="10" stroke-dasharray="" stroke-dashoffset="0" font-family="none" font-weight="none" font-size="none" text-anchor="none" style="mix-blend-mode: normal" data-fill-palette-color="tertiary"></path></g><g transform="matrix(1,0,0,1,116.13999999999999,20.139999999999986)"><svg viewBox="0 0 279.72 279.72" height="279.72" width="279.72"><g><svg viewBox="0 0 279.72 279.72" height="279.72" width="279.72"><g><svg viewBox="0 0 279.72 279.72" height="279.72" width="279.72"><g id="textblocktransform"><svg viewBox="0 0 279.72 279.72" height="279.72" width="279.72" id="textblock"><g><svg viewBox="0 0 279.72 279.72" height="279.72" width="279.72"><g transform="matrix(1,0,0,1,78.05002848953092,78.05002848953092)"><svg viewBox="0 0 123.6199430209382 123.6199430209382" height="123.6199430209382" width="123.6199430209382"><g><circle r="62" cx="61.8099715104691" cy="61.8099715104691" fill="#ffffff" data-fill-palette-color="accent"></circle><svg xmlns="http://www.w3.org/2000/svg" xmlns:xlink="http://www.w3.org/1999/xlink" version="1.1" x="18.54299145314073" y="18.54299145314073" viewBox="6.300000190734863 11.5 87.39999389648438 77" style="enable-background:new 0 0 100 100;" xml:space="preserve" height="86.53396011465674" width="86.53396011465674" class="icon-o-0" data-fill-palette-color="quaternary" id="o-0"><path d="M72.3 12.3L72.3 12.3 72.3 12.3l-0.4-0.8H28.2L6.3 50l21.8 38.5h43.7L93.7 50 72.3 12.3zM33.3 25.3L9.9 47.7l18.6-32.8L33.3 25.3zM70.7 14.8l6.4 35.7L36.9 25.8 70.7 14.8zM35.5 27.3l41 25.2-41 23.3V27.3zM77 54.5l-7.2 30.8-32.6-8.1L77 54.5zM33.5 75L9.9 50.5l23.6-22.7V75zM33.2 77.6l-4.6 7.7L11.5 55.1 33.2 77.6zM35 78.6l31.4 7.9H30.2L35 78.6zM79.3 53.3l11.6-2.5L72.1 84 79.3 53.3zM90.7 48.9l-11.4 2.5-5.9-33.1L90.7 48.9zM35 24.3l-5-10.8h38.2L35 24.3z" fill="#000000" data-fill-palette-color="quaternary"></path></svg></g></svg></g><g><path d="M4.744 102.154l13.807 5.484c3.995 1.587 7.117 1.701 9.366 0.343 2.253-1.349 3.975-3.522 5.166-6.52v0c1.431-3.602 1.542-6.625 0.333-9.067-1.203-2.44-3.717-4.438-7.544-5.994v0l-12.887-5.238 0.59-3.803-1.506-0.868-3.991 10.049 1.517 0.841 2.404-3.494 13.511 5.442c2.675 1.077 4.43 2.463 5.264 4.159 0.835 1.695 0.819 3.633-0.048 5.814v0c-0.896 2.256-2.303 3.764-4.221 4.525-1.916 0.754-4.316 0.558-7.202-0.588v0l-13.032-5.176 0.617-3.868-1.525-0.822-4.522 11.386 1.487 0.916z" fill="#000000" data-fill-palette-color="quaternary"></path><path d="M33.501 46.338l5.061 5.239 1.708-1.174-2.835-4.853 4.918-4.52 15.776 17.168-2.092 3.371 1.011 1.338 8.976-8.249-0.988-1.551-3.598 2.269-15.886-17.286 5.073-4.662 4.17 3.258 1.808-1.198-4.602-6.152z" fill="#000000" data-fill-palette-color="quaternary"></path><path d="M83.968 12.741l4.189-0.592 8.13 21.229-3.15 2.348 0.428 1.624 11.403-4.367-0.431-1.774-4.097 0.751-8.22-21.464 3.264-2.166-0.409-1.685-11.488 4.4z" fill="#000000" data-fill-palette-color="quaternary"></path><path d="M130.848 28.132l22.389 0.268 0.934-7.473-1.917-0.325-3.035 5.577-9.997-0.12 0.277-23.183 3.885-1.01 0.242-1.717-12.441-0.149-0.313 1.716 4.241 1.198-0.27 22.53-3.764 1.021z" fill="#000000" data-fill-palette-color="quaternary"></path><path d="M188.936 10.022l3.463 2.43-8.566 21.057-3.905-0.438-0.797 1.479 11.311 4.601 0.897-1.59-3.504-2.25 8.661-21.29 3.862 0.648 0.853-1.509-11.394-4.636z" fill="#000000" data-fill-palette-color="quaternary"></path><path d="M231.637 32.504l-4.941 5.353 1.27 1.638 4.683-3.108 4.794 4.65-16.235 16.736-3.486-1.897-1.278 1.087 8.751 8.488 1.491-1.075-2.471-3.462 16.347-16.851 4.945 4.798-3.014 4.349 1.3 1.737 5.879-4.947z" fill="#000000" data-fill-palette-color="quaternary"></path><path d="M267.781 80.315l0.243 3.25-10.245 12.524-8.077 3.123-2.217-2.777-1.641 0.387 4.128 10.676 1.769-0.447-0.615-3.709 8.753-3.385 15.499 2.376 1.817 2.328 1.684-0.414-3.631-9.391-1.684 0.414 0.609 4.197-12.406-1.599 8.079-9.842 2.085 3.022 1.702-0.367-4.142-10.714z" fill="#000000" data-fill-palette-color="quaternary"></path><path d="M30.129 174.107l-5.002 1.849 0.289 1.496 4.09-0.474 1.581 4.626-16.161 5.525-1.637-2.395-1.201 0.282 2.89 8.452 1.331-0.21-0.459-3.086 16.265-5.561 1.634 4.778-3.412 1.836 0.27 1.567 5.474-1.277z" fill="#000000" data-fill-palette-color="quaternary"></path><path d="M22.761 210.02l1.286-0.52-0.874-3.064 5.974-3.269 1.381 2.524-2.856 4.567c-0.873 1.38-1.43 2.682-1.67 3.905-0.249 1.222-0.079 2.371 0.51 3.448v0c0.335 0.612 0.75 1.141 1.247 1.588v0l1.104-0.329-0.11-0.559c-0.148-0.676-0.183-1.306-0.106-1.891 0.081-0.579 0.243-1.176 0.487-1.792 0.244-0.615 0.659-1.526 1.245-2.733v0l2.184-4.6 0.009-0.005c0.795 0.712 1.633 1.232 2.515 1.559 0.882 0.327 1.74 0.477 2.574 0.449 0.824-0.03 1.557-0.221 2.198-0.572v0c1.606-0.879 2.41-2.148 2.411-3.807-0.001-1.65-0.636-3.635-1.903-5.952v0c-0.528-0.965-1.14-1.944-1.838-2.939-0.688-0.992-1.508-2.099-2.459-3.322v0l-1.189 0.468 0.916 2.721-14.225 7.782-2.007-2.055-1.164 0.43zM38.262 198.18c0.051 0.079 0.178 0.277 0.382 0.594 0.195 0.314 0.408 0.683 0.64 1.106v0c0.46 0.841 0.683 1.66 0.667 2.456-0.021 0.799-0.253 1.529-0.693 2.19-0.444 0.656-1.063 1.201-1.857 1.636v0c-0.959 0.525-1.913 0.68-2.864 0.466-0.947-0.208-1.778-0.644-2.493-1.308v0l-1.573-2.877z" fill="#000000" data-fill-palette-color="quaternary"></path><path d="M29.503 221.74l4.895 6.015 1.144-0.698-1.381-2.845 5.009-1.924 4.381 5.383-2.756 4.565-2.487-1.621-1.078 0.619 5.384 6.616 1.125-0.722-0.873-2.22 10.621-16.97-1.979-1.619-18.701 6.103-2.257-1.34zM40.881 221.713l8.371-2.844-4.695 7.361z" fill="#000000" data-fill-palette-color="quaternary"></path><path d="M53.626 248.493c0.815 0.708 1.715 1.257 2.698 1.649 0.979 0.396 1.933 0.652 2.864 0.766 0.925 0.11 1.757 0.104 2.494-0.02v0l0.383-1.332c-1.063 0.028-2.133-0.115-3.21-0.428-1.078-0.313-2.009-0.811-2.794-1.492v0c-1.018-0.883-1.729-1.962-2.133-3.236-0.395-1.274-0.407-2.652-0.037-4.133 0.375-1.486 1.186-2.948 2.434-4.386v0c1.138-1.312 2.334-2.281 3.588-2.907 1.254-0.617 2.459-0.88 3.616-0.791 1.157 0.089 2.173 0.514 3.049 1.274v0c0.77 0.668 1.322 1.351 1.657 2.05 0.335 0.699 0.483 1.382 0.445 2.051v0l-1.862 3.205 0.957 1.123 3.993-3.82c-0.194-0.923-0.593-1.824-1.197-2.703-0.609-0.884-1.357-1.71-2.244-2.479v0c-1.793-1.556-3.671-2.426-5.632-2.61-1.953-0.185-3.784 0.126-5.496 0.932-1.711 0.806-3.145 1.875-4.3 3.207v0c-1.389 1.601-2.244 3.277-2.567 5.03-0.328 1.749-0.188 3.41 0.417 4.983 0.606 1.573 1.565 2.929 2.877 4.067z" fill="#000000" data-fill-palette-color="quaternary"></path><path d="M73.312 239.122l2.257 2.338-8.413 14.037-2.916-0.692-0.769 0.97 7.851 4.705 0.847-1.04-2.32-2.235 8.491-14.166 2.849 0.804 0.784-0.995-7.816-4.686zM74.307 250.59l0.645 7.024c0.163 1.841 0.485 3.379 0.965 4.612 0.486 1.237 1.272 2.182 2.359 2.833v0c0.644 0.386 1.329 0.652 2.055 0.798v0l0.722-0.892-0.412-0.506c-0.48-0.53-0.856-1.103-1.127-1.719-0.268-0.622-0.488-1.325-0.66-2.108-0.166-0.78-0.376-1.93-0.63-3.449v0l-0.937-5.734 9.284-3.477 2.909 0.841 0.819-0.975-7.006-4.199-0.758 1.011 1.802 1.983-6.246 2.495c-0.366 0.14-0.974 0.347-1.824 0.619-0.847 0.266-1.446 0.443-1.796 0.53v0z" fill="#000000" data-fill-palette-color="quaternary"></path><path d="M97.481 252.314l2.661 1.583-5.085 15.851-2.87-0.108-0.5 1.129 16.005 5.134 2.061-4.779-1.245-0.631-2.706 3.135-7.816-2.507 2.465-7.682 4.329 1.389-0.349 2.931 1.406 0.229 2.506-5.968-1.575-0.262-1.269 1.685-4.578-1.469 2.409-7.509 7.432 2.384-0.436 3.6 1.302 0.65 2.107-4.891-15.698-5.036z" fill="#000000" data-fill-palette-color="quaternary"></path><path d="M113.641 257.517l2.318 1.016 4.299 19.812 2.555-0.13 9.491-17.529 2.247-0.324 0.289-1.229-7.465-1.016-0.289 1.23 2.896 1.094-7.206 13.648-3.18-15.132 2.875-0.238 0.339-1.223-8.831-1.201z" fill="#000000" data-fill-palette-color="quaternary"></path><path d="M136.255 260.395l3.041 0.582 0.617 16.635-2.735 0.877-0.085 1.231 16.796-0.623 0.311-5.195-1.386-0.17-1.477 3.869-8.202 0.305-0.299-8.062 4.543-0.168 0.671 2.874 1.399-0.264 0.324-6.464-1.569 0.29-0.62 2.016-4.805 0.178-0.292-7.88 7.8-0.289 0.815 3.532 1.446 0.168 0.316-5.316-16.474 0.611z" fill="#000000" data-fill-palette-color="quaternary"></path><path d="M167.296 276.598l-0.125-1.381-3.187-0.053-1.395-6.665 2.816-0.589 3.542 4.057c1.067 1.236 2.152 2.146 3.253 2.731 1.097 0.593 2.246 0.763 3.447 0.512v0c0.683-0.143 1.31-0.387 1.882-0.733v0l0.005-1.152-0.566-0.056c-0.69-0.054-1.303-0.203-1.841-0.447-0.531-0.245-1.055-0.574-1.573-0.986-0.518-0.412-1.27-1.074-2.255-1.985v0l-3.769-3.424-0.002-0.01c0.912-0.554 1.652-1.206 2.222-1.955 0.569-0.749 0.962-1.527 1.176-2.332 0.21-0.798 0.24-1.554 0.09-2.27v0c-0.375-1.792-1.356-2.929-2.944-3.412-1.58-0.478-3.663-0.446-6.249 0.095v0c-1.076 0.225-2.192 0.527-3.345 0.906-1.149 0.371-2.446 0.834-3.892 1.39v0l0.102 1.274 2.87-0.087 3.322 15.87-2.549 1.325 0.074 1.238zM160.46 258.329c0.091-0.026 0.317-0.09 0.679-0.194 0.357-0.095 0.772-0.192 1.244-0.291v0c0.939-0.196 1.786-0.172 2.544 0.074 0.758 0.252 1.39 0.685 1.895 1.299 0.499 0.615 0.841 1.365 1.027 2.252v0c0.224 1.07 0.096 2.028-0.385 2.875-0.474 0.846-1.132 1.515-1.974 2.006v0l-3.21 0.672z" fill="#000000" data-fill-palette-color="quaternary"></path><path d="M173.274 255.586l2.387-0.213 9.268 7.372 2.37 5.888-2.015 1.646 0.3 1.202 7.781-3.133-0.346-1.291-2.711 0.484-2.566-6.373 1.581-11.371 1.689-1.353-0.321-1.226-6.839 2.754 0.32 1.226 3.068-0.487-1.053 9.099-7.287-5.817 2.203-1.559-0.293-1.238-7.8 3.141z" fill="#000000" data-fill-palette-color="quaternary"></path><path d="M192.136 246.473l2.928 4.457 1.393-0.618-1.383-3.878 4.15-2.584 9.026 14.5-1.965 2.135 0.546 1.106 7.583-4.72-0.505-1.25-2.903 1.143-9.084-14.593 4.287-2.669 2.558 2.91 1.465-0.615-2.477-5.046z" fill="#000000" data-fill-palette-color="quaternary"></path><path d="M209.017 237.253l2.696-1.524 11.23 12.289-1.52 2.438 0.732 0.994 6.615-6.046-0.739-1.122-2.63 1.64-5.306-5.807 7.67-7.009 5.231 5.725-1.512 2.431 0.709 1.014 6.639-6.066-0.777-1.089-2.6 1.613-11.352-12.422 1.621-2.326-0.707-1.058-6.675 6.101 0.714 1.05 2.711-1.537 4.851 5.309-7.67 7.009-4.899-5.361 1.636-2.34-0.729-1.036-6.653 6.079z" fill="#000000" data-fill-palette-color="quaternary"></path><path d="M226.57 220.808l2.436-1.911 12.95 10.46-1.136 2.639 0.873 0.873 5.619-6.956-0.932-0.96-2.322 1.978-13.09-10.575 1.278-2.574-0.877-0.916-5.663 7.011z" fill="#000000" data-fill-palette-color="quaternary"></path><path d="M233.142 212.438l2.26-2.171 14.212 8.374-0.737 2.777 0.991 0.735 3.993-6.777-1.052-0.83-2.022 2.323-12.081-7.118 19.706-1.127 0.845-2.444-16.111-9.493 0.867-2.699-0.971-0.829-3.993 6.777 0.981 0.811 2.156-2.291 12.158 7.165-19.247 1.022-2.946 5z" fill="#000000" data-fill-palette-color="quaternary"></path><path d="M266.355 190.331c0.57-1.591 0.936-3.037 1.097-4.341 0.159-1.297 0.118-2.554-0.122-3.773v0l-5.615-2.013 0.062-2.169-1.11-0.6-3.106 8.663 1.229 0.654 1.908-3.472 4.914 1.762c0.06 0.349 0.075 0.785 0.043 1.308-0.037 0.521-0.154 1.056-0.351 1.606v0c-0.57 1.591-1.475 2.823-2.714 3.696-1.237 0.867-2.641 1.365-4.211 1.493-1.573 0.134-3.148-0.082-4.726-0.648v0c-1.831-0.656-3.245-1.48-4.243-2.472-0.994-0.983-1.603-2.046-1.828-3.188-0.225-1.142-0.126-2.3 0.295-3.474v0c0.416-1.161 0.953-2.091 1.609-2.789 0.656-0.698 1.299-1.19 1.93-1.477v0l3.186 0.501 0.713-1.272-4.886-2.169c-0.751 0.585-1.451 1.364-2.099 2.336-0.65 0.978-1.203 2.105-1.66 3.379v0c-0.65 1.812-0.832 3.68-0.547 5.607 0.285 1.926 1.055 3.673 2.31 5.241 1.252 1.574 2.948 2.745 5.088 3.513v0c1.818 0.652 3.569 0.884 5.253 0.697 1.676-0.183 3.177-0.823 4.504-1.922 1.325-1.092 2.351-2.651 3.077-4.677z" fill="#000000" data-fill-palette-color="quaternary"></path><path d="M10.059 145.124c0-1.781 1.444-3.224 3.224-3.224 1.781 0 3.224 1.444 3.224 3.224 0 1.781-1.444 3.224-3.224 3.224-1.781 0-3.224-1.444-3.224-3.224z" fill="#000000" data-fill-palette-color="quaternary"></path><path d="M263.286 145.124c0-1.781 1.444-3.224 3.224-3.224 1.781 0 3.224 1.444 3.225 3.224 0 1.781-1.444 3.224-3.225 3.224-1.781 0-3.224-1.444-3.224-3.224z" fill="#000000" data-fill-palette-color="quaternary"></path></g></svg></g></svg></g></svg></g></svg></g></svg></g></svg></g><defs></defs></svg><rect width="512" height="320" fill="none" stroke="none" visibility="hidden"></rect></g></svg></g></svg>